<?xml version="1.0" encoding="UTF-8"?>
<svg xmlns="http://www.w3.org/2000/svg" id="Layer_1" data-name="Layer 1" viewBox="0 0 24 24">
  <path d="m23.854,23.146l-6.449-6.449c1.607-1.775,2.596-4.12,2.596-6.697C20,4.486,15.514,0,10,0S0,4.486,0,10s4.486,10,10,10c2.577,0,4.922-.988,6.697-2.596l6.449,6.449c.098.098.226.146.354.146s.256-.049.354-.146c.195-.195.195-.512,0-.707ZM1,10C1,5.038,5.038,1,10,1s9,4.038,9,9-4.038,9-9,9S1,14.962,1,10Zm8-2c-1.103,0-2,.897-2,2s.897,2,2,2,2-.897,2-2-.897-2-2-2Zm0,3c-.551,0-1-.449-1-1s.449-1,1-1,1,.449,1,1-.449,1-1,1Zm4.357-4.309c-.069-.016-.164-.055-.22-.151-1.104-1.907-2.976-2.826-5.007-2.461-2.394.43-4.131,2.587-4.131,5.129v.292c0,3.584,2.916,6.5,6.5,6.5,1.896,0,3.55-1.252,3.849-2.912.063-.351.345-.682.485-.808.73-.654,1.166-1.601,1.166-2.531,0-1.452-1.086-2.71-2.643-3.059Zm.809,4.846c-.11.099-.668.631-.802,1.375-.21,1.171-1.468,2.088-2.864,2.088-3.033,0-5.5-2.467-5.5-5.5v-.292c0-2.024,1.422-3.806,3.308-4.145.228-.041.453-.061.674-.061,1.334,0,2.532.73,3.291,2.039.186.32.494.542.867.625.896.201,1.861.939,1.861,2.083,0,.641-.319,1.325-.834,1.787Z"/>
</svg>
